<svg width="120" height="40" viewBox="0 0 120 40" fill="none" xmlns="http://www.w3.org/2000/svg">
<path d="M99.1218 40C110.652 40 120 31.0457 120 20C120 8.95431 110.652 0 99.1218 0C87.5911 0 78.2437 8.95431 78.2437 20C78.2437 31.0457 87.5911 40 99.1218 40Z" fill="#FFC200"/>
<path d="M7.28939 25.2874C5.9061 25.2874 4.66521 25.0146 3.55993 24.469C2.45466 23.9233 1.58671 23.1114 0.949316 22.0331C0.311919 20.9548 0 19.6232 0 18.0448C0 16.4664 0.318699 15.1023 0.962877 13.9591C1.60027 12.8094 2.48178 11.9324 3.60062 11.3154C4.71945 10.7048 6.00103 10.393 7.43178 10.393C9.09308 10.393 10.3679 10.6138 11.2562 11.062C12.1445 11.5102 12.5852 12.1663 12.5852 13.0432C12.5852 13.7187 12.3953 14.2774 12.0156 14.7126C11.6359 15.1543 11.1138 15.3686 10.4492 15.3686C9.88644 15.3686 9.33719 15.2972 8.81507 15.1543C8.28617 15.0114 7.66911 14.9399 6.96391 14.9399C6.06206 14.9399 5.35007 15.1867 4.82795 15.6869C4.30582 16.1871 4.04815 16.8431 4.04815 17.6486C4.04815 18.454 4.30582 19.1101 4.82795 19.6427C5.35007 20.1754 6.06206 20.4417 6.96391 20.4417C7.44534 20.4417 7.8861 20.4027 8.28617 20.3313C8.68624 20.2598 9.07952 20.1819 9.46603 20.0974C9.85254 20.013 10.2729 19.974 10.7205 19.974C11.4664 19.974 12.0156 20.2079 12.3682 20.6755C12.7208 21.1432 12.8971 21.7148 12.8971 22.4034C12.8971 23.0919 12.6395 23.6505 12.1173 24.0727C11.5952 24.495 10.9103 24.8067 10.056 24.9951C9.20158 25.1835 8.27939 25.2809 7.27582 25.2809L7.28939 25.2874Z" fill="black"/>
<path d="M19.2235 25.2874C17.5757 25.2874 16.2603 24.8197 15.2838 23.8779C14.3074 22.9425 13.8124 21.6174 13.8124 19.9026C13.8124 18.8503 14.0361 17.9279 14.4905 17.1289C14.938 16.33 15.5686 15.7064 16.3823 15.2582C17.1892 14.8035 18.1385 14.5826 19.2235 14.5826C20.4372 14.5826 21.4408 14.81 22.2477 15.2582C23.0479 15.7129 23.6514 16.3365 24.0514 17.1289C24.4515 17.9279 24.6549 18.8503 24.6549 19.9026C24.6549 21.6174 24.2074 22.9425 23.3123 23.8779C22.4172 24.8132 21.0543 25.2874 19.2235 25.2874ZM16.3281 19.5583C16.3281 19.974 16.545 20.2728 16.9858 20.4417C17.4198 20.6106 18.1724 20.695 19.2235 20.695C20.2745 20.695 21.0272 20.6106 21.4611 20.4417C21.8951 20.2728 22.1189 19.9805 22.1189 19.5583C22.1189 19.1361 21.9019 18.8698 21.4611 18.7074C21.0272 18.545 20.2813 18.467 19.2235 18.467C18.1657 18.467 17.4198 18.545 16.9858 18.7074C16.5518 18.8698 16.3281 19.1556 16.3281 19.5583Z" fill="black"/>
<path d="M27.6727 25.2419C27.0353 25.2419 26.5335 25.0666 26.1606 24.7028C25.7876 24.3455 25.5978 23.9039 25.5978 23.3777V16.6807C25.5978 16.1156 25.7741 15.6349 26.1335 15.2452C26.4928 14.8555 27.0014 14.6606 27.6659 14.6606C28.3304 14.6606 28.7983 14.8555 29.1238 15.2452C29.4493 15.6349 29.612 16.1286 29.612 16.7197V17.733H29.9918C29.9918 16.5833 30.2426 15.7843 30.7512 15.3361C31.2598 14.8814 31.8836 14.6606 32.6295 14.6606C33.5856 14.6606 34.2908 14.9464 34.7451 15.5115C35.1926 16.0766 35.4232 16.8236 35.4232 17.7395H35.8029C35.8029 16.973 35.9385 16.3624 36.203 15.9207C36.4674 15.4725 36.8133 15.1543 37.2269 14.9594C37.6405 14.7645 38.0745 14.6671 38.5288 14.6671C39.4442 14.6671 40.1155 14.8749 40.5495 15.2972C40.9767 15.7129 41.2547 16.278 41.3835 16.9795C41.5124 17.6811 41.5734 18.4735 41.5734 19.3504V23.3972C41.5734 23.9233 41.3835 24.365 41.0106 24.7223C40.6376 25.0796 40.1426 25.2614 39.5188 25.2614C38.895 25.2614 38.4 25.086 38.0202 24.7223C37.6405 24.365 37.4507 23.9233 37.4507 23.3972V19.8181C37.4507 19.3309 37.3896 18.9542 37.2608 18.6879C37.132 18.4151 36.8811 18.2851 36.5013 18.2851C36.0945 18.2851 35.83 18.4345 35.708 18.7333C35.5859 19.0321 35.5249 19.4089 35.5249 19.8636V23.4037C35.5249 23.9298 35.3486 24.3715 34.996 24.7288C34.6434 25.086 34.1552 25.2679 33.5381 25.2679C32.9211 25.2679 32.3989 25.0925 32.026 24.7288C31.6531 24.3715 31.4632 23.9298 31.4632 23.4037V19.8246C31.4632 19.3374 31.4022 18.9607 31.2733 18.6944C31.1445 18.4216 30.9004 18.2916 30.5342 18.2916C30.1274 18.2916 29.8697 18.441 29.7612 18.7398C29.6527 19.0386 29.6052 19.4154 29.6052 19.8701V23.4102C29.6052 23.9363 29.4357 24.378 29.0967 24.7353C28.7576 25.0925 28.283 25.2744 27.6591 25.2744L27.6727 25.2419Z" fill="black"/>
<path d="M45.0181 25.242C44.3265 25.242 43.784 25.0601 43.384 24.6963C42.9839 24.3326 42.7805 23.7999 42.7805 23.0984V20.2468C42.7805 18.8178 43.0042 17.733 43.4586 16.986C43.9061 16.2455 44.4825 15.7129 45.1673 15.3881L45.0588 15.0049H44.6994C44.0485 15.0049 43.5399 14.8035 43.167 14.4073C42.794 14.011 42.5974 13.4654 42.5838 12.7769C42.5703 12.1013 42.7533 11.5622 43.1466 11.1595C43.5399 10.7567 44.0485 10.5554 44.6994 10.5554H52.0905C53.5959 10.5554 54.3486 11.2309 54.3486 12.582C54.3486 13.1861 54.1655 13.6733 53.7993 14.037C53.4332 14.4008 52.8636 14.5827 52.0905 14.5827H47.9678C47.4457 14.5827 47.188 14.875 47.188 15.4531V16.9081C47.8525 16.7327 48.5374 16.5313 49.2562 16.304C49.9749 16.0767 50.6666 15.9597 51.3243 15.9597C52.0295 15.9597 52.572 16.1221 52.9585 16.4534C53.345 16.7847 53.5416 17.2848 53.5416 17.9604C53.5416 18.6359 53.345 19.1166 52.9585 19.4479C52.572 19.7791 52.0227 19.948 51.3243 19.961C50.6598 19.974 49.9681 19.8701 49.2426 19.6492C48.5171 19.4284 47.8254 19.227 47.1609 19.0516L47.1405 23.0984C47.1405 23.7999 46.9439 24.3326 46.5574 24.6963C46.1709 25.0601 45.6555 25.242 45.0046 25.242H45.0181Z" fill="black"/>
<path d="M57.949 25.242C56.9658 25.242 56.1589 24.8847 55.5418 24.1702C54.9247 23.4557 54.606 22.4488 54.5925 21.1562L54.5721 16.4794C54.5721 15.9013 54.7552 15.4466 55.1349 15.1153C55.5079 14.784 56.0165 14.6216 56.6674 14.6216C57.3184 14.6216 57.7863 14.784 58.166 15.1153C58.5457 15.4466 58.7356 15.9013 58.7356 16.4794V20.708C58.7356 21.7213 59.1492 22.228 59.9832 22.228C60.3901 22.228 60.6681 22.0851 60.8105 21.7928C60.9529 21.5005 61.0207 21.1302 61.0207 20.669V16.4794C61.0207 15.9532 61.2106 15.5115 61.5903 15.1543C61.97 14.797 62.465 14.6151 63.0685 14.6151C63.672 14.6151 64.1941 14.797 64.54 15.1543C64.8858 15.5115 65.0553 15.9532 65.0553 16.4794V23.1179C65.0553 23.7674 64.9061 24.2806 64.601 24.6638C64.2958 25.0471 63.8076 25.242 63.1295 25.242C62.4515 25.242 61.9497 25.0471 61.5767 24.6638C61.2038 24.2806 61.0139 23.761 61.0139 23.1179V22.7736H60.6342C60.6342 23.5531 60.3901 24.1637 59.9086 24.5924C59.4204 25.0276 58.7695 25.242 57.9558 25.242H57.949Z" fill="black"/>
<path d="M68.1948 25.2419C67.5778 25.2419 67.076 25.0666 66.7031 24.7028C66.3301 24.3455 66.1403 23.9039 66.1403 23.3777V16.6807C66.1403 16.1156 66.3166 15.6349 66.6692 15.2452C67.0218 14.8555 67.5303 14.6606 68.1881 14.6606C68.8458 14.6606 69.3272 14.8555 69.6663 15.2452C70.0053 15.6349 70.1748 16.1286 70.1748 16.7197V17.733H70.5546C70.5546 16.9665 70.697 16.3559 70.9885 15.9142C71.2801 15.466 71.6463 15.1478 72.1006 14.9529C72.5481 14.758 73.0025 14.6606 73.45 14.6606C74.5349 14.6606 75.3283 15.0373 75.8368 15.7843C76.3454 16.5313 76.5963 17.5966 76.5963 18.9737V23.3842C76.5963 23.9103 76.4132 24.352 76.047 24.7093C75.6809 25.0666 75.1859 25.2484 74.5688 25.2484C73.9518 25.2484 73.4296 25.0731 73.0567 24.7093C72.6838 24.352 72.4939 23.9103 72.4939 23.3842V19.8051C72.4939 19.3179 72.399 18.9412 72.2091 18.6749C72.0192 18.4021 71.7412 18.2722 71.3751 18.2722C70.9546 18.2722 70.6427 18.4215 70.4529 18.7203C70.263 19.0191 70.1681 19.3959 70.1681 19.8506V23.3907C70.1681 23.9168 69.9918 24.3585 69.6392 24.7158C69.2866 25.0731 68.7983 25.2549 68.1813 25.2549L68.1948 25.2419Z" fill="black"/>
<path d="M79.7493 25.2419C79.1322 25.2419 78.6305 25.0666 78.2575 24.7028C77.8846 24.3455 77.6947 23.9039 77.6947 23.3777V16.6807C77.6947 16.1156 77.871 15.6349 78.2236 15.2452C78.5762 14.8555 79.0848 14.6606 79.7425 14.6606C80.4003 14.6606 80.8817 14.8555 81.2207 15.2452C81.5598 15.6349 81.7293 16.1286 81.7293 16.7197V17.733H82.109C82.109 16.9665 82.2514 16.3559 82.543 15.9142C82.8346 15.466 83.2007 15.1478 83.6551 14.9529C84.1026 14.758 84.5569 14.6606 85.0044 14.6606C86.0894 14.6606 86.8827 15.0373 87.3913 15.7843C87.8998 16.5313 88.1507 17.5966 88.1507 18.9737V23.3842C88.1507 23.9103 87.9677 24.352 87.6015 24.7093C87.2353 25.0666 86.7403 25.2484 86.1233 25.2484C85.5062 25.2484 84.9841 25.0731 84.6112 24.7093C84.2382 24.352 84.0483 23.9103 84.0483 23.3842V19.8051C84.0483 19.3179 83.9534 18.9412 83.7635 18.6749C83.5737 18.4021 83.2957 18.2722 82.9295 18.2722C82.5091 18.2722 82.1972 18.4215 82.0073 18.7203C81.8174 19.0191 81.7225 19.3959 81.7225 19.8506V23.3907C81.7225 23.9168 81.5462 24.3585 81.1936 24.7158C80.841 25.0731 80.3528 25.2549 79.7357 25.2549L79.7493 25.2419Z" fill="black"/>
<path d="M93.3514 29.4121C92.4089 29.4121 91.6359 29.2627 91.0391 28.9639C90.4424 28.6651 89.9746 28.2754 89.6355 27.7882C89.3507 27.3725 89.1948 26.9308 89.1609 26.4696C89.1269 26.0084 89.2151 25.5797 89.4253 25.1835C89.6355 24.7873 89.9542 24.482 90.3746 24.2611C90.8086 24.0338 91.2493 23.9428 91.6833 23.9883C92.1173 24.0338 92.5241 24.1897 92.8903 24.456C93.2565 24.7223 93.5413 25.0601 93.7379 25.4758C93.9481 25.924 94.1651 26.2488 94.3821 26.4566C94.5991 26.6645 94.8839 26.71 95.2365 26.5865C95.5755 26.4761 95.6976 26.1838 95.6094 25.6966C95.5145 25.2095 95.3314 24.6379 95.0466 23.9753H94.2668C93.6633 23.9753 93.0531 23.7674 92.4496 23.3452C91.8461 22.9295 91.3375 22.267 90.9306 21.3641L89.2015 17.5187C88.9371 16.9146 88.91 16.3495 89.1269 15.8363C89.3439 15.3232 89.744 14.9529 90.3204 14.7255C90.8561 14.4982 91.385 14.4852 91.9071 14.6866C92.4292 14.8879 92.8361 15.3232 93.1344 15.9792L94.7415 19.5583C95.0059 20.1364 95.3043 20.5586 95.6162 20.8119C95.9349 21.0718 96.2672 21.1107 96.6198 20.9354C96.9317 20.773 97.1012 20.5456 97.1283 20.2598C97.1554 19.9675 97.0063 19.6167 96.6876 19.1945C96.5452 19.0062 96.3824 18.7983 96.1926 18.5645C96.0027 18.3371 95.8332 18.0708 95.684 17.7655C95.5348 17.4602 95.4602 17.1224 95.4602 16.7457C95.4602 16.1091 95.684 15.5895 96.1383 15.1802C96.5859 14.771 97.1826 14.5632 97.9149 14.5632C98.5794 14.5632 99.1083 14.7645 99.5084 15.1673C99.9085 15.57 100.112 16.0961 100.112 16.7457C100.112 17.2069 100.058 17.7135 99.9424 18.2657C99.8271 18.8178 99.705 19.3309 99.5626 19.8051L98.0437 25.125C97.82 25.924 97.5216 26.645 97.1555 27.2881C96.7893 27.9376 96.3011 28.4508 95.6976 28.8275C95.0941 29.2043 94.3143 29.3926 93.3718 29.3926L93.3514 29.4121Z" fill="black"/>
<path d="M109.422 28.3988V28.886H105.869V26.9373H106.378V26.4501H107.904V26.9373H108.412V27.9117H109.429V28.3988H109.422ZM107.897 27.4245H106.371V27.9117H107.897V27.4245Z" fill="black"/>
<path d="M108.914 24.0208V23.5336H109.422V25.4823H108.914V25.9695H106.378V25.4823H105.869V23.5336H106.378V24.9951H108.914V24.0208Z" fill="black"/>
<path d="M109.422 20.6106V21.5849H108.914V20.6106H107.897V21.0977H107.388V21.5849H106.371V21.0977H105.862V19.6362H106.371V20.6106H107.388V20.1234H107.897V19.6362H108.914V20.1234H109.422V20.6106Z" fill="black"/>
<path d="M109.422 17.2069V17.694H107.388V18.1812H109.422V19.1556H105.869V18.1812H106.886V17.694H105.869V16.7197H109.422V17.2069Z" fill="black"/>
<path d="M109.422 14.2903V15.7519H108.914V16.239H106.378V15.7519H105.869V13.8032H106.378V13.316H108.914V13.8032H109.422V14.2903ZM108.914 14.7775V14.2903H106.378V15.2647H108.914V14.7775Z" fill="black"/>
<path d="M109.422 12.3417V12.8288H105.869V10.8801H106.378V10.393H107.904V10.8801H108.412V11.8545H109.429V12.3417H109.422ZM107.897 11.3673H106.371V11.8545H107.897V11.3673Z" fill="black"/>
</svg>
