<svg width="5760" height="20" viewBox="0 0 5760 20" fill="none" xmlns="http://www.w3.org/2000/svg">
<path d="M0 0.0180833C73.8428 7.43448 147.696 14.8507 221.538 12.8636C295.381 10.8764 369.234 -0.51445 443.077 0.0180833C516.92 0.550617 590.773 13.0062 664.615 12.8636C738.458 12.7209 812.311 -0.0200938 886.154 0.0180833C959.997 0.0562604 1033.85 12.8737 1107.69 12.8636C1181.54 12.8534 1255.39 0.0153885 1329.23 0.0180833C1403.07 0.0207782 1476.93 12.8643 1550.77 12.8636C1624.61 12.8628 1698.46 0.0179336 1772.31 0.0180833C1846.15 0.018233 1920 12.8636 1993.85 12.8636C2067.69 12.8636 2141.54 0.0180833 2215.38 0.0180833C2289.23 0.0180833 2363.08 12.8636 2436.92 12.8636C2510.77 12.8636 2584.62 0.0180833 2658.46 0.0180833C2732.3 0.0180833 2806.16 12.8636 2880 12.8636C2953.84 12.8636 3027.7 0.0180833 3101.54 0.0180833C3175.38 0.0180833 3249.23 12.8636 3323.08 12.8636C3396.92 12.8636 3470.77 0.0180833 3544.62 0.0180833C3618.46 0.0180833 3692.31 12.8636 3766.15 12.8636C3840 12.8636 3913.85 0.018233 3987.69 0.0180833C4061.54 0.0179336 4135.39 12.8628 4209.23 12.8636C4283.07 12.8643 4356.93 0.0207782 4430.77 0.0180833C4504.61 0.0153885 4578.46 12.8534 4652.31 12.8636C4726.15 12.8737 4800 0.0562604 4873.85 0.0180833C4947.69 -0.0200938 5021.54 12.7209 5095.38 12.8636C5169.23 13.0062 5243.08 0.550617 5316.92 0.0180833C5390.77 -0.51445 5464.62 10.8764 5538.46 12.8636C5612.3 14.8507 5686.16 7.43448 5760 0.0180833V20C5686.16 20 5612.3 20 5538.46 20C5464.62 20 5390.77 20 5316.92 20C5243.08 20 5169.23 20 5095.38 20C5021.54 20 4947.69 20 4873.85 20C4800 20 4726.15 20 4652.31 20C4578.46 20 4504.61 20 4430.77 20C4356.93 20 4283.07 20 4209.23 20C4135.39 20 4061.54 20 3987.69 20C3913.85 20 3840 20 3766.15 20C3692.31 20 3618.46 20 3544.62 20C3470.77 20 3396.92 20 3323.08 20C3249.23 20 3175.38 20 3101.54 20C3027.7 20 2953.84 20 2880 20C2806.16 20 2732.3 20 2658.46 20C2584.62 20 2510.77 20 2436.92 20C2363.08 20 2289.23 20 2215.38 20C2141.54 20 2067.69 20 1993.85 20C1920 20 1846.15 20 1772.31 20C1698.46 20 1624.61 20 1550.77 20C1476.93 20 1403.07 20 1329.23 20C1255.39 20 1181.54 20 1107.69 20C1033.85 20 959.997 20 886.154 20C812.311 20 738.458 20 664.615 20C590.773 20 516.92 20 443.077 20C369.234 20 295.381 20 221.538 20C147.696 20 73.8428 20 0 20V0.0180833Z" fill="white"/>
</svg>
